<svg version="1" xmlns="http://www.w3.org/2000/svg" width="534.667" height="534.667" viewBox="0 0 401.000000 401.000000"><path d="M60.5 47.1c-3.3.5-8.9 1.7-12.4 2.7l-6.4 1.8 3.5 2.2c4.8 3 10.6 9.4 15.1 16.8C67.2 82 70.3 91.8 83 141c4.8 18.6 10.3 33.9 15.5 42.5 2 3.2 3.4 5.9 3.3 6-.2.1-3.5.9-7.4 1.8-12.5 2.9-23.2 2-34.7-3.1l-4.7-2.1.6 2.7c6.2 26.4 41 74.5 87.9 121.8 9.4 9.4 20.4 19.5 24.5 22.4 14.6 10.2 31.6 17.2 49.5 20.5 12.3 2.3 38.6 1.6 49.5-1.4 30-8 53.7-24 70.5-47.6 17.3-24.1 25.5-57 21.4-86-4.3-31.2-16.8-53.8-44.1-80-33.7-32.4-73-62.7-98.8-76.3-9.6-5.1-24.6-10.9-25.6-9.9-.3.2.1 2.9 1 5.8 2 7.5 2.7 14.8 2.7 28.9.1 12.2-1.7 26-3.3 26-.4 0-.8-.8-.8-1.8 0-6.3-14.2-21.6-32.9-35.5-17.6-13.2-36.8-22.3-57.1-27.2-7.9-1.9-31.2-2.8-39.5-1.4zm139 139c18 3.3 35.4 20.2 38.1 36.9l.7 4.4 1.7-5.9c3.6-13.3 12.6-24.4 24.7-30.8 8.8-4.5 16.1-6.1 25.9-5.5 23.1 1.5 41.4 17.9 45.5 40.9 1.4 7.9 0 23.5-3 34-5.8 19.9-17 37.3-32.2 49.5-19.6 15.9-43.2 23.5-67.8 22-25.4-1.5-44.5-10.1-62.7-28.1-15.7-15.5-24.3-31.7-27.9-52.2-4-23.1-.1-38.6 13-51.8 11.8-11.8 27.3-16.5 44-13.4z"/><path d="M176.1 217.2c-7.7 4-10.2 12.7-6.1 20.8 7.6 14.9 32.7 20.5 40 8.8 3.5-5.6 1.6-14-5.1-22.1-7.3-8.8-20-12.1-28.8-7.5zM286.5 215.9c-10.6 2.6-20.4 14.5-20.5 24.8 0 11.9 15.5 16.1 30.2 8.1 8.4-4.6 12.8-10.8 12.8-18.2 0-11.4-9.8-17.8-22.5-14.7zM234.5 279.1c-6.1 5.4-6.1 5.7-.6 16.6l4.8 9.8 4.7-9.3c2.5-5 4.6-10 4.6-11 0-1.9-4.1-6.2-7.7-8.1-1.9-1-2.7-.7-5.8 2z"/></svg>