<?xml version="1.0" encoding="UTF-8"?>
<svg width="156px" height="36px" viewBox="0 0 156 36" version="1.1" xmlns="http://www.w3.org/2000/svg" xmlns:xlink="http://www.w3.org/1999/xlink">
    <!-- Generator: Sketch 52.6 (67491) - http://www.bohemiancoding.com/sketch -->
    <title>Group 7</title>
    <desc>Created with Sketch.</desc>
    <g id="Bridge" stroke="none" stroke-width="1" fill="none" fill-rule="evenodd">
        <g id="sigma1-2" transform="translate(-240.000000, -17.000000)" fill="#129C6B">
            <g id="Group-7" transform="translate(240.000000, 17.000000)">
                <g id="ARTIS_sigma1">
                    <path d="M39.7846154,15.6034286 C39.7527519,15.479203 39.7007795,15.3610623 39.6307692,15.2537143 L28.2564103,0.411428571 C28.2564103,0.411428571 28.2564103,0.411428571 28.2564103,0.411428571 C28.260011,0.394475876 28.260011,0.376952696 28.2564103,0.36 C28.1696904,0.267614183 28.0649587,0.194092527 27.9487179,0.144 C27.8038637,0.0451364474 27.6315489,-0.00526563167 27.4564103,3.99691131e-16 L27.3128205,3.99691131e-16 L8.53333333,1.86171429 C8.3925766,1.87968124 8.25668818,1.9251068 8.13333333,1.99542857 L7.97948718,2.05714286 C7.87134304,2.15110966 7.78400144,2.26672998 7.72307692,2.39657143 L0.0923076923,19.5428571 C0.097786775,19.5595597 0.097786775,19.5775832 0.0923076923,19.5942857 C0.0967549493,19.6146154 0.0967549493,19.6356703 0.0923076923,19.656 C0.0724021365,19.7717168 0.0724021365,19.8899975 0.0923076923,20.0057143 L0,20.0057143 C0.0123265024,20.135509 0.0507027019,20.2614627 0.112820513,20.376 L0.112820513,20.4377143 L0.112820513,20.4994286 L11.6307692,35.3725714 C11.7114784,35.4804029 11.8125403,35.571269 11.9282051,35.64 C12.0626137,35.7053329 12.2096294,35.7404366 12.3589744,35.7428571 L12.4615385,35.7428571 L31.2615385,33.9428571 L31.4153846,33.9428571 C31.518944,33.9089021 31.6186413,33.8640825 31.7128205,33.8091429 C31.8046354,33.7406319 31.8843692,33.6571936 31.9487179,33.5622857 L31.9487179,33.48 L39.7230769,16.2514286 C39.7949768,16.1046588 39.8268262,15.941408 39.8153846,15.7782857 C39.8114472,15.7190576 39.8011308,15.6604307 39.7846154,15.6034286 Z M31.9692308,14.8011429 L29.6410256,5.60571429 L36.7076923,14.8011429 L31.9692308,14.8011429 Z M30.1435897,31.5257143 L16.5846154,27.5862857 L2.75897436,19.8 L13.0153846,10.2857143 L26.7692308,2.58171429 L30.1435897,15.9531429 L30.1435897,31.5257143 Z M22.6461538,2.53028571 L12.8205128,8.05371429 L10.3282051,3.75428571 L22.6461538,2.53028571 Z M8.75897436,5.14285714 L11.1487179,9.25714286 L11.0666667,9.31885714 L3.98974359,15.8708571 L8.75897436,5.14285714 Z M12.3076923,32.9142857 L4.94358974,23.3897143 L14.7589744,28.9131429 L12.3076923,32.9142857 Z M16.625641,29.7257143 L25.7435897,32.3794286 L14.3589744,33.5211429 L16.625641,29.7257143 Z M32.1948718,28.08 L32.1948718,16.8582857 L37.2102564,16.8582857 L32.1948718,28.08 Z" id="Shape"></path>
                    <path d="M25.0051282,11.8285714 C25.0051282,11.2605071 24.5459331,10.8 23.9794872,10.8 L15.774359,10.8 C15.3761353,10.7993506 15.0135324,11.0299279 14.8442874,11.3914278 C14.6750423,11.7529277 14.7297514,12.1799978 14.9846154,12.4868571 L19.5692308,18 L14.9846154,23.5131429 C14.7299553,23.822531 14.6779045,24.252173 14.8512821,24.6137143 C15.0209258,24.9709205 15.3798365,25.19888 15.774359,25.2 L23.9794872,25.2 C24.5459331,25.2 25.0051282,24.7394929 25.0051282,24.1714286 C25.0051282,23.6033643 24.5459331,23.1428571 23.9794872,23.1428571 L17.9692308,23.1428571 L21.6923077,18.6582857 C22.00906,18.2769109 22.00906,17.7230891 21.6923077,17.3417143 L17.9692308,12.8571429 L23.9794872,12.8571429 C24.5459331,12.8571429 25.0051282,12.3966357 25.0051282,11.8285714 Z" id="Path"></path>
                </g>
                <g id="Group-4" transform="translate(50.000000, 0.000000)" fill-rule="nonzero">
                    <path d="M62.7282233,7.1841701 L58.4292878,5.279297 L58.4292878,21.6498494 L62.7282233,21.6498494 L62.7282233,7.1841701 Z M8.25949805,4.96024089 L3.76606467,6.90296811 L0,21.6498494 L4.36288002,21.6498494 L5.36600938,17.5737725 L6.15066169,13.9438333 L8.25949805,4.96024089 Z M15.4172856,21.6498494 L20.1425178,21.6498494 L11.6339027,0 L8.1169551,2.06169729 L15.4172856,21.6498494 Z M51.9962046,4.4803048 L69.1306665,4.4803048 L69.1306665,0.755730351 L51.9962046,0.755730351 L51.9962046,4.4803048 Z M77.1330543,21.6498494 L81.4359864,21.6498494 L81.4359864,0.757082284 L77.1330543,0.757082284 L77.1330543,21.6498494 Z M94.5486056,6.01204449 C94.1409594,5.08732256 92.8540763,2.92152645 92.257261,2.28476618 C91.347384,2.79444479 90.1257776,4.355927 90.1257776,7.03004978 C90.1257776,10.438272 91.3500484,11.6806981 94.7391069,12.5405273 L98.6623685,13.5598845 C101.549196,14.3237264 101.706393,14.7698642 101.706393,15.597247 C101.695457,15.8401761 101.661553,16.0814775 101.605148,16.3178271 C101.482587,16.7666687 101.113574,17.5251029 99.658837,18.006391 C98.7010653,18.2811366 97.7113273,18.4243647 96.7160578,18.4322497 C94.7710792,18.4322497 91.6950823,18.0820992 90.4401714,17.7954895 L90.4401714,21.2672525 C91.5698576,21.6809439 94.363433,22 96.3710239,22 C96.9691714,22 97.7191871,21.9729613 98.4465558,21.9080686 C98.8781812,21.8945493 101.707725,21.7498925 103.712652,20.3087323 C103.775264,20.2614146 103.84587,20.212745 103.903153,20.1586677 C104.458236,19.7331332 104.913252,19.18779 105.23533,18.5620353 C105.251316,18.5295889 105.263306,18.4998464 105.27796,18.4674 C105.697596,17.6562404 106,16.5746943 106,15.1173109 C106,11.8375223 104.713117,10.6261906 100.256985,9.44865729 L96.8665938,8.58882812 C94.6018927,7.98316229 94.4193844,7.60056535 94.4193844,6.67719535 C94.4307115,6.44979813 94.472849,6.22506793 94.5446091,6.00934063 L94.5486056,6.01204449 Z M99.6281969,3.97062619 L99.6281969,3.97333006 C97.3688245,3.97333006 95.6742953,4.25993978 94.5446091,4.737172 C94.7324461,3.71781479 95.5170984,1.4573834 96.0819415,0.755730351 C97.2511261,0.530180047 98.4380976,0.412980728 99.6281969,0.405579795 C101.511895,0.405579795 103.80324,0.661095065 104.900954,0.915258403 L104.900954,4.41676396 C103.154169,4.1573735 101.393191,4.00837386 99.6281969,3.97062619 Z M40.2037728,21.7093345 L37.6673076,14.7225465 L41.6531815,13.4355067 L45.1914439,21.7025748 L40.2037728,21.7093345 Z M27.3642499,21.7025748 L27.3642499,5.23603515 L31.6711785,6.99354759 L31.6711785,11.4914275 L34.9416733,11.4914275 C36.5136422,11.4914275 38.4319773,11.2683586 39.0607649,10.8857617 C39.7828049,10.438272 40.2237555,9.25803478 40.2237555,7.98181036 C40.2237555,5.68487679 39.1233772,4.50463959 35.5384886,4.50463959 L29.847428,4.50463959 L26.2638716,3.99360905 L26.2638716,0.77060161 L35.9221556,0.77060161 C42.9014315,0.77060161 44.567985,3.51367296 44.567985,8.11024396 C44.567985,10.3098384 43.4649424,14.9064094 38.8396235,14.9064094 C37.6579824,15.0902722 36.3924141,15.0659374 35.1934547,15.0659374 L31.6711785,15.0659374 L31.6711785,21.7025748 L27.3642499,21.7025748 Z" id="Shape"></path>
                </g>
                <path d="M52.8,29 C54.014712,29 54.8897032,29.4803874 55.425,30.4411765 L54.7147059,31.0176471 C54.5088225,30.5647036 54.2634818,30.2438735 53.9786765,30.0551471 C53.6938711,29.8664206 53.3044142,29.7720588 52.8102941,29.7720588 C52.2887229,29.7720588 51.878678,29.880146 51.5801471,30.0963235 C51.2816162,30.3125011 51.1323529,30.5887238 51.1323529,30.925 C51.1323529,31.1446089 51.1906857,31.3264699 51.3073529,31.4705882 C51.4240202,31.6147066 51.6178908,31.7399504 51.8889706,31.8463235 C52.1600504,31.9526966 52.5357819,32.0470584 53.0161765,32.1294118 C53.9152006,32.2803929 54.5517138,32.5068612 54.9257353,32.8088235 C55.2997568,33.1107858 55.4867647,33.5294091 55.4867647,34.0647059 C55.4867647,34.4490215 55.3786776,34.7870083 55.1625,35.0786765 C54.9463224,35.3703446 54.6392177,35.5968129 54.2411765,35.7580882 C53.8431353,35.9193636 53.3833359,36 52.8617647,36 C52.1754868,36 51.5904436,35.8661778 51.1066176,35.5985294 C50.6227917,35.330881 50.2539228,34.9740218 50,34.5279412 L50.7102941,33.9514706 C50.8955892,34.3563746 51.1683806,34.670342 51.5286765,34.8933824 C51.8889724,35.1164227 52.3401934,35.2279412 52.8823529,35.2279412 C53.4176497,35.2279412 53.8431357,35.130148 54.1588235,34.9345588 C54.4745114,34.7389696 54.6323529,34.4627469 54.6323529,34.1058824 C54.6323529,33.8039201 54.4950994,33.5637264 54.2205882,33.3852941 C53.9460771,33.2068619 53.458827,33.055883 52.7588235,32.9323529 C51.8529366,32.774509 51.2112764,32.5480407 50.8338235,32.2529412 C50.4563707,31.9578417 50.2676471,31.5460811 50.2676471,31.0176471 C50.2676471,30.6539197 50.3705872,30.3176486 50.5764706,30.0088235 C50.782354,29.6999985 51.0774491,29.4546578 51.4617647,29.2727941 C51.8460804,29.0909305 52.2921543,29 52.8,29 Z M58.9588235,35.8970588 L58.1352941,35.8970588 L58.1352941,29.1029412 L58.9588235,29.1029412 L58.9588235,35.8970588 Z M67.6294117,32.4691176 L67.6294117,35.8970588 L67.0117646,35.8970588 L66.9808823,34.9808824 C66.7818617,35.3102958 66.5022076,35.5624991 66.1419117,35.7375 C65.7816158,35.9125009 65.3475515,36 64.8397058,36 C64.2014673,36 63.6455905,35.8575995 63.1720588,35.5727941 C62.698527,35.2879888 62.3330895,34.8830909 62.0757352,34.3580882 C61.818381,33.8330856 61.6897058,33.2137291 61.6897058,32.5 C61.6897058,31.7931337 61.8218123,31.1754928 62.0860294,30.6470588 C62.3502464,30.1186248 62.7208309,29.7120112 63.1977941,29.4272059 C63.6747572,29.1424005 64.2289184,29 64.8602941,29 C65.5328464,29 66.0870076,29.1269595 66.5227941,29.3808824 C66.9585806,29.6348052 67.3102927,30.0259777 67.5779411,30.5544118 L66.8264705,30.9661765 C66.6754894,30.5818608 66.4301487,30.2867657 66.0904411,30.0808824 C65.7507335,29.874999 65.3406886,29.7720588 64.8602941,29.7720588 C64.4004878,29.7720588 63.9973056,29.8818616 63.6507352,30.1014706 C63.3041649,30.3210795 63.0348048,30.635047 62.842647,31.0433824 C62.6504892,31.4517177 62.5544117,31.9372521 62.5544117,32.5 C62.5544117,33.3647102 62.7534293,34.0355368 63.1514705,34.5125 C63.5495117,34.9894632 64.1225452,35.2279412 64.8705882,35.2279412 C65.4607872,35.2279412 65.9428902,35.0769623 66.3169117,34.775 C66.6909332,34.4730377 66.8779411,34.0406891 66.8779411,33.4779412 L66.8779411,33.2411765 L64.7161764,33.2411765 L64.7161764,32.4691176 L67.6294117,32.4691176 Z M77.0411764,35.8970588 L76.2588234,35.8970588 L76.2588234,31.625 L76.3514705,29.8338235 L76.3411764,29.8338235 L74.1073529,35.8970588 L73.4073529,35.8970588 L71.1735293,29.8338235 L71.1632352,29.8338235 L71.2558823,31.625 L71.2558823,35.8970588 L70.4735293,35.8970588 L70.4735293,29.1029412 L71.7397058,29.1029412 L73.2323529,33.2308824 L73.7470587,34.9294118 L73.767647,34.9294118 L74.292647,33.2411765 L75.7749999,29.1029412 L77.0411764,29.1029412 L77.0411764,35.8970588 Z M84.0029411,34.0132353 L80.9249999,34.0132353 L80.2044116,35.8970588 L79.3397058,35.8970588 L81.985294,29.1029412 L82.9632352,29.1029412 L85.5985293,35.8970588 L84.7235293,35.8970588 L84.0029411,34.0132353 Z M83.7044116,33.2411765 L82.7882352,30.8323529 L82.4691175,29.8852941 L82.4485293,29.8852941 L82.1499999,30.8014706 L81.2235293,33.2411765 L83.7044116,33.2411765 Z M98.4823528,35.8970588 L97.6999998,35.8970588 L97.6999998,31.625 L97.7926469,29.8338235 L97.7823528,29.8338235 L95.5485292,35.8970588 L94.8485292,35.8970588 L92.6147057,29.8338235 L92.6044116,29.8338235 L92.6970586,31.625 L92.6970586,35.8970588 L91.9147057,35.8970588 L91.9147057,29.1029412 L93.1808822,29.1029412 L94.6735292,33.2308824 L95.1882351,34.9294118 L95.2088234,34.9294118 L95.7338234,33.2411765 L97.2161763,29.1029412 L98.4823528,29.1029412 L98.4823528,35.8970588 Z M105.444117,34.0132353 L102.366176,34.0132353 L101.645588,35.8970588 L100.780882,35.8970588 L103.42647,29.1029412 L104.404412,29.1029412 L107.039706,35.8970588 L106.164706,35.8970588 L105.444117,34.0132353 Z M105.145588,33.2411765 L104.229412,30.8323529 L103.910294,29.8852941 L103.889706,29.8852941 L103.591176,30.8014706 L102.664706,33.2411765 L105.145588,33.2411765 Z M110.161764,35.8970588 L109.338235,35.8970588 L109.338235,29.1029412 L110.161764,29.1029412 L110.161764,35.8970588 Z M118.636764,35.8970588 L117.617647,35.8970588 L114.77647,31.3470588 L114.055882,30.0088235 L114.045588,30.0088235 L114.086764,31.1 L114.086764,35.8970588 L113.304412,35.8970588 L113.304412,29.1029412 L114.323529,29.1029412 L117.154412,33.6323529 L117.885294,34.9911765 L117.895588,34.9911765 L117.854412,33.9 L117.854412,29.1029412 L118.636764,29.1029412 L118.636764,35.8970588 Z M127.111764,35.8970588 L126.092647,35.8970588 L123.25147,31.3470588 L122.530882,30.0088235 L122.520588,30.0088235 L122.561764,31.1 L122.561764,35.8970588 L121.779411,35.8970588 L121.779411,29.1029412 L122.798529,29.1029412 L125.629411,33.6323529 L126.360294,34.9911765 L126.370588,34.9911765 L126.329411,33.9 L126.329411,29.1029412 L127.111764,29.1029412 L127.111764,35.8970588 Z M135.175,35.125 L135.175,35.8970588 L130.254411,35.8970588 L130.254411,29.1029412 L135.020588,29.1029412 L135.020588,29.875 L131.077941,29.875 L131.077941,32.0676471 L134.145588,32.0676471 L134.145588,32.8397059 L131.077941,32.8397059 L131.077941,35.125 L135.175,35.125 Z M142.517647,29.875 L140.15,29.875 L140.15,35.8970588 L139.32647,35.8970588 L139.32647,29.875 L136.958823,29.875 L136.958823,29.1029412 L142.517647,29.1029412 L142.517647,29.875 Z" id="SIGMA-MAINNET"></path>
            </g>
        </g>
    </g>
</svg>