<?xml version="1.0" encoding="UTF-8"?>
<svg width="156px" height="36px" viewBox="0 0 156 36" version="1.1" xmlns="http://www.w3.org/2000/svg" xmlns:xlink="http://www.w3.org/1999/xlink">
    <!-- Generator: Sketch 52.6 (67491) - http://www.bohemiancoding.com/sketch -->
    <title>Group 7</title>
    <desc>Created with Sketch.</desc>
    <g id="Bridge" stroke="none" stroke-width="1" fill="none" fill-rule="evenodd">
        <g id="tau1-2" transform="translate(-240.000000, -17.000000)" fill="#F97599">
            <g id="Group-7" transform="translate(240.000000, 17.000000)">
                <g id="Group-4" transform="translate(50.000000, 0.000000)">
                    <path d="M62.7282233,7.1841701 L58.4292878,5.279297 L58.4292878,21.6498494 L62.7282233,21.6498494 L62.7282233,7.1841701 Z M8.25949805,4.96024089 L3.76606467,6.90296811 L0,21.6498494 L4.36288002,21.6498494 L5.36600938,17.5737725 L6.15066169,13.9438333 L8.25949805,4.96024089 Z M15.4172856,21.6498494 L20.1425178,21.6498494 L11.6339027,0 L8.1169551,2.06169729 L15.4172856,21.6498494 Z M51.9962046,4.4803048 L69.1306665,4.4803048 L69.1306665,0.755730351 L51.9962046,0.755730351 L51.9962046,4.4803048 Z M77.1330543,21.6498494 L81.4359864,21.6498494 L81.4359864,0.757082284 L77.1330543,0.757082284 L77.1330543,21.6498494 Z M94.5486056,6.01204449 C94.1409594,5.08732256 92.8540763,2.92152645 92.257261,2.28476618 C91.347384,2.79444479 90.1257776,4.355927 90.1257776,7.03004978 C90.1257776,10.438272 91.3500484,11.6806981 94.7391069,12.5405273 L98.6623685,13.5598845 C101.549196,14.3237264 101.706393,14.7698642 101.706393,15.597247 C101.695457,15.8401761 101.661553,16.0814775 101.605148,16.3178271 C101.482587,16.7666687 101.113574,17.5251029 99.658837,18.006391 C98.7010653,18.2811366 97.7113273,18.4243647 96.7160578,18.4322497 C94.7710792,18.4322497 91.6950823,18.0820992 90.4401714,17.7954895 L90.4401714,21.2672525 C91.5698576,21.6809439 94.363433,22 96.3710239,22 C96.9691714,22 97.7191871,21.9729613 98.4465558,21.9080686 C98.8781812,21.8945493 101.707725,21.7498925 103.712652,20.3087323 C103.775264,20.2614146 103.84587,20.212745 103.903153,20.1586677 C104.458236,19.7331332 104.913252,19.18779 105.23533,18.5620353 C105.251316,18.5295889 105.263306,18.4998464 105.27796,18.4674 C105.697596,17.6562404 106,16.5746943 106,15.1173109 C106,11.8375223 104.713117,10.6261906 100.256985,9.44865729 L96.8665938,8.58882812 C94.6018927,7.98316229 94.4193844,7.60056535 94.4193844,6.67719535 C94.4307115,6.44979813 94.472849,6.22506793 94.5446091,6.00934063 L94.5486056,6.01204449 Z M99.6281969,3.97062619 L99.6281969,3.97333006 C97.3688245,3.97333006 95.6742953,4.25993978 94.5446091,4.737172 C94.7324461,3.71781479 95.5170984,1.4573834 96.0819415,0.755730351 C97.2511261,0.530180047 98.4380976,0.412980728 99.6281969,0.405579795 C101.511895,0.405579795 103.80324,0.661095065 104.900954,0.915258403 L104.900954,4.41676396 C103.154169,4.1573735 101.393191,4.00837386 99.6281969,3.97062619 Z M40.2037728,21.7093345 L37.6673076,14.7225465 L41.6531815,13.4355067 L45.1914439,21.7025748 L40.2037728,21.7093345 Z M27.3642499,21.7025748 L27.3642499,5.23603515 L31.6711785,6.99354759 L31.6711785,11.4914275 L34.9416733,11.4914275 C36.5136422,11.4914275 38.4319773,11.2683586 39.0607649,10.8857617 C39.7828049,10.438272 40.2237555,9.25803478 40.2237555,7.98181036 C40.2237555,5.68487679 39.1233772,4.50463959 35.5384886,4.50463959 L29.847428,4.50463959 L26.2638716,3.99360905 L26.2638716,0.77060161 L35.9221556,0.77060161 C42.9014315,0.77060161 44.567985,3.51367296 44.567985,8.11024396 C44.567985,10.3098384 43.4649424,14.9064094 38.8396235,14.9064094 C37.6579824,15.0902722 36.3924141,15.0659374 35.1934547,15.0659374 L31.6711785,15.0659374 L31.6711785,21.7025748 L27.3642499,21.7025748 Z" id="Shape" fill-rule="nonzero"></path>
                    <path d="M5.55882353,29.875 L3.19117647,29.875 L3.19117647,35.8970588 L2.36764706,35.8970588 L2.36764706,29.875 L0,29.875 L0,29.1029412 L5.55882353,29.1029412 L5.55882353,29.875 Z M10.7504902,34.0132353 L7.67254906,34.0132353 L6.95196083,35.8970588 L6.08725494,35.8970588 L8.73284318,29.1029412 L9.71078435,29.1029412 L12.3460785,35.8970588 L11.4710785,35.8970588 L10.7504902,34.0132353 Z M10.4519608,33.2411765 L9.53578435,30.8323529 L9.21666671,29.8852941 L9.19607847,29.8852941 L8.89754906,30.8014706 L7.97107847,33.2411765 L10.4519608,33.2411765 Z M19.6171569,33.3647059 C19.6171569,34.2362789 19.388973,34.8933801 18.9325981,35.3360294 C18.4762233,35.7786787 17.8156907,36 16.9509805,36 C16.0862703,36 15.4257377,35.776963 14.9693628,35.3308824 C14.512988,34.8848017 14.284804,34.2294161 14.284804,33.3647059 L14.284804,29.1029412 L15.1083334,29.1029412 L15.1083334,33.1588235 C15.1083334,33.8725526 15.2575966,34.3958317 15.5561275,34.7286765 C15.8546584,35.0615213 16.3196048,35.2279412 16.9509805,35.2279412 C17.5823562,35.2279412 18.0473025,35.0615213 18.3458334,34.7286765 C18.6443643,34.3958317 18.7936275,33.8725526 18.7936275,33.1588235 L18.7936275,29.1029412 L19.6171569,29.1029412 L19.6171569,33.3647059 Z M31.4931374,29.875 L29.1254904,29.875 L29.1254904,35.8970588 L28.3019609,35.8970588 L28.3019609,29.875 L25.9343139,29.875 L25.9343139,29.1029412 L31.4931374,29.1029412 L31.4931374,29.875 Z M38.7127453,35.125 L38.7127453,35.8970588 L33.7921571,35.8970588 L33.7921571,29.1029412 L38.5583335,29.1029412 L38.5583335,29.875 L34.6156865,29.875 L34.6156865,32.0676471 L37.6833335,32.0676471 L37.6833335,32.8397059 L34.6156865,32.8397059 L34.6156865,35.125 L38.7127453,35.125 Z M43.4000002,29 C44.6147122,29 45.4897035,29.4803874 46.0250002,30.4411765 L45.3147061,31.0176471 C45.1088227,30.5647036 44.8634821,30.2438735 44.5786767,30.0551471 C44.2938714,29.8664206 43.9044145,29.7720588 43.4102944,29.7720588 C42.8887231,29.7720588 42.4786782,29.880146 42.1801473,30.0963235 C41.8816164,30.3125011 41.7323532,30.5887238 41.7323532,30.925 C41.7323532,31.1446089 41.7906859,31.3264699 41.9073532,31.4705882 C42.0240204,31.6147066 42.217891,31.7399504 42.4889708,31.8463235 C42.7600506,31.9526966 43.1357822,32.0470584 43.6161767,32.1294118 C44.5152008,32.2803929 45.1517141,32.5068612 45.5257355,32.8088235 C45.899757,33.1107858 46.086765,33.5294091 46.086765,34.0647059 C46.086765,34.4490215 45.9786778,34.7870083 45.7625002,35.0786765 C45.5463227,35.3703446 45.2392179,35.5968129 44.8411767,35.7580882 C44.4431355,35.9193636 43.9833362,36 43.461765,36 C42.775487,36 42.1904438,35.8661778 41.7066179,35.5985294 C41.2227919,35.330881 40.8539231,34.9740218 40.6000002,34.5279412 L41.3102944,33.9514706 C41.4955894,34.3563746 41.7683808,34.670342 42.1286767,34.8933824 C42.4889726,35.1164227 42.9401936,35.2279412 43.4823532,35.2279412 C44.01765,35.2279412 44.4431359,35.130148 44.7588238,34.9345588 C45.0745116,34.7389696 45.2323532,34.4627469 45.2323532,34.1058824 C45.2323532,33.8039201 45.0950997,33.5637264 44.8205885,33.3852941 C44.5460773,33.2068619 44.0588273,33.055883 43.3588238,32.9323529 C42.4529369,32.774509 41.8112766,32.5480407 41.4338238,32.2529412 C41.0563709,31.9578417 40.8676473,31.5460811 40.8676473,31.0176471 C40.8676473,30.6539197 40.9705875,30.3176486 41.1764708,30.0088235 C41.3823542,29.6999985 41.6774493,29.4546578 42.061765,29.2727941 C42.4460806,29.0909305 42.8921546,29 43.4000002,29 Z M53.141667,29.875 L50.7740199,29.875 L50.7740199,35.8970588 L49.9504905,35.8970588 L49.9504905,29.875 L47.5828434,29.875 L47.5828434,29.1029412 L53.141667,29.1029412 L53.141667,29.875 Z M60.7730395,35.8970588 L59.7539219,35.8970588 L56.9127454,31.3470588 L56.1921572,30.0088235 L56.1818631,30.0088235 L56.2230395,31.1 L56.2230395,35.8970588 L55.4406866,35.8970588 L55.4406866,29.1029412 L56.4598042,29.1029412 L59.2906866,33.6323529 L60.021569,34.9911765 L60.0318631,34.9911765 L59.9906866,33.9 L59.9906866,29.1029412 L60.7730395,29.1029412 L60.7730395,35.8970588 Z M68.7750004,35.125 L68.7750004,35.8970588 L63.8544121,35.8970588 L63.8544121,29.1029412 L68.6205886,29.1029412 L68.6205886,29.875 L64.6779415,29.875 L64.6779415,32.0676471 L67.7455886,32.0676471 L67.7455886,32.8397059 L64.6779415,32.8397059 L64.6779415,35.125 L68.7750004,35.125 Z M76.056373,29.875 L73.6887259,29.875 L73.6887259,35.8970588 L72.8651965,35.8970588 L72.8651965,29.875 L70.4975494,29.875 L70.4975494,29.1029412 L76.056373,29.1029412 L76.056373,29.875 Z" id="TAU-TESTNET"></path>
                </g>
                <g id="ARTIS_tau1-Copy">
                    <path d="M39.7846154,15.6034286 C39.7527519,15.479203 39.7007795,15.3610623 39.6307692,15.2537143 L28.2564103,0.411428571 C28.2564103,0.411428571 28.2564103,0.411428571 28.2564103,0.411428571 C28.260011,0.394475876 28.260011,0.376952696 28.2564103,0.36 C28.1696904,0.267614183 28.0649587,0.194092527 27.9487179,0.144 C27.8038637,0.0451364474 27.6315489,-0.00526563167 27.4564103,3.99691131e-16 L27.3128205,3.99691131e-16 L8.53333333,1.86171429 C8.3925766,1.87968124 8.25668818,1.9251068 8.13333333,1.99542857 L7.97948718,2.05714286 C7.87134304,2.15110966 7.78400144,2.26672998 7.72307692,2.39657143 L0.0923076923,19.5428571 C0.097786775,19.5595597 0.097786775,19.5775832 0.0923076923,19.5942857 C0.0967549493,19.6146154 0.0967549493,19.6356703 0.0923076923,19.656 C0.0724021365,19.7717168 0.0724021365,19.8899975 0.0923076923,20.0057143 L0,20.0057143 C0.0123265024,20.135509 0.0507027019,20.2614627 0.112820513,20.376 L0.112820513,20.4377143 L0.112820513,20.4994286 L11.6307692,35.3725714 C11.7114784,35.4804029 11.8125403,35.571269 11.9282051,35.64 C12.0626137,35.7053329 12.2096294,35.7404366 12.3589744,35.7428571 L12.4615385,35.7428571 L31.2615385,33.9428571 L31.4153846,33.9428571 C31.518944,33.9089021 31.6186413,33.8640825 31.7128205,33.8091429 C31.8046354,33.7406319 31.8843692,33.6571936 31.9487179,33.5622857 L31.9487179,33.48 L39.7230769,16.2514286 C39.7949768,16.1046588 39.8268262,15.941408 39.8153846,15.7782857 C39.8114472,15.7190576 39.8011308,15.6604307 39.7846154,15.6034286 Z M31.9692308,14.8011429 L29.6410256,5.60571429 L36.7076923,14.8011429 L31.9692308,14.8011429 Z M30.1435897,31.5257143 L16.5846154,27.5862857 L2.75897436,19.8 L13.0153846,10.2857143 L26.7692308,2.58171429 L30.1435897,15.9531429 L30.1435897,31.5257143 Z M22.6461538,2.53028571 L12.8205128,8.05371429 L10.3282051,3.75428571 L22.6461538,2.53028571 Z M8.75897436,5.14285714 L11.1487179,9.25714286 L11.0666667,9.31885714 L3.98974359,15.8708571 L8.75897436,5.14285714 Z M12.3076923,32.9142857 L4.94358974,23.3897143 L14.7589744,28.9131429 L12.3076923,32.9142857 Z M16.625641,29.7257143 L25.7435897,32.3794286 L14.3589744,33.5211429 L16.625641,29.7257143 Z M32.1948718,28.08 L32.1948718,16.8582857 L37.2102564,16.8582857 L32.1948718,28.08 Z" id="Shape" fill-rule="nonzero"></path>
                    <path d="M23.7025641,12.9188571 L18.0307692,12.9188571 C17.030023,12.8633806 16.0529773,13.2373643 15.3435897,13.9474286 C14.9459245,14.34861 14.9459245,14.9965329 15.3435897,15.3977143 C15.5362142,15.6003586 15.8028845,15.715503 16.0820513,15.7165714 C16.3461226,15.7155168 16.5996128,15.6123573 16.7897436,15.4285714 C17.1198255,15.0866379 17.5903711,14.9191931 18.0615385,14.976 L18.8820513,14.976 L18.8820513,20.2422857 C18.893323,21.8191456 20.1711819,23.0914691 21.7435897,23.0914286 C22.5705656,23.0885659 23.3573474,22.7333156 23.9076923,22.1142857 C24.1513658,21.8368435 24.2289374,21.4501066 24.1111866,21.0997551 C23.9934358,20.7494036 23.6982518,20.4886643 23.3368276,20.4157551 C22.9754034,20.3428459 22.6026478,20.4688435 22.3589744,20.7462857 C22.2085169,20.9315598 21.9818278,21.0376503 21.7435897,21.0342857 C21.5259762,21.0342857 21.3172756,20.9475921 21.1633996,20.7932764 C21.0095236,20.6389608 20.9230769,20.4296639 20.9230769,20.2114286 L20.9230769,14.976 L23.7230769,14.976 C24.2895228,14.976 24.7487179,14.5154929 24.7487179,13.9474286 C24.7487179,13.3793643 24.2895228,12.9188571 23.7230769,12.9188571 L23.7025641,12.9188571 Z" id="Path"></path>
                </g>
            </g>
        </g>
    </g>
</svg>